<mxfile host="app.diagrams.net" modified="2022-05-10T12:22:50.248Z" agent="5.0 (Windows NT 10.0; Win64; x64) AppleWebKit/537.36 (KHTML, like Gecko) Chrome/100.0.4896.60 Safari/537.36" etag="vgZE5f7MFld0sSDkRxy3" version="18.0.2" type="github">
  <diagram id="YhEEu-kTNRBDaP0nw8z6" name="Page-1">
    <mxGraphModel dx="460" dy="784" grid="1" gridSize="10" guides="1" tooltips="1" connect="1" arrows="1" fold="1" page="1" pageScale="1" pageWidth="827" pageHeight="1169" math="0" shadow="0">
      <root>
        <mxCell id="0" />
        <mxCell id="1" parent="0" />
        <mxCell id="Z6UNJ-Nhh9-VpM3zaR7p-3" value="" style="edgeStyle=orthogonalEdgeStyle;rounded=0;orthogonalLoop=1;jettySize=auto;html=1;" edge="1" parent="1" source="Z6UNJ-Nhh9-VpM3zaR7p-1" target="Z6UNJ-Nhh9-VpM3zaR7p-2">
          <mxGeometry relative="1" as="geometry" />
        </mxCell>
        <mxCell id="Z6UNJ-Nhh9-VpM3zaR7p-1" value="inicio" style="ellipse;whiteSpace=wrap;html=1;fillColor=#dae8fc;strokeColor=#6c8ebf;" vertex="1" parent="1">
          <mxGeometry x="10" y="20" width="120" height="80" as="geometry" />
        </mxCell>
        <mxCell id="Z6UNJ-Nhh9-VpM3zaR7p-5" value="" style="edgeStyle=orthogonalEdgeStyle;rounded=0;orthogonalLoop=1;jettySize=auto;html=1;" edge="1" parent="1" source="Z6UNJ-Nhh9-VpM3zaR7p-2" target="Z6UNJ-Nhh9-VpM3zaR7p-4">
          <mxGeometry relative="1" as="geometry" />
        </mxCell>
        <mxCell id="Z6UNJ-Nhh9-VpM3zaR7p-2" value="percurso,horas,minutos" style="shape=parallelogram;perimeter=parallelogramPerimeter;whiteSpace=wrap;html=1;fixedSize=1;fillColor=#fff2cc;strokeColor=#d6b656;" vertex="1" parent="1">
          <mxGeometry x="10" y="190" width="120" height="60" as="geometry" />
        </mxCell>
        <mxCell id="Z6UNJ-Nhh9-VpM3zaR7p-7" value="" style="edgeStyle=orthogonalEdgeStyle;rounded=0;orthogonalLoop=1;jettySize=auto;html=1;" edge="1" parent="1" source="Z6UNJ-Nhh9-VpM3zaR7p-4" target="Z6UNJ-Nhh9-VpM3zaR7p-6">
          <mxGeometry relative="1" as="geometry" />
        </mxCell>
        <mxCell id="Z6UNJ-Nhh9-VpM3zaR7p-4" value="resul&amp;lt;-horas+(minutos/60)&lt;br&gt;velmedia&amp;lt;-km/resul" style="whiteSpace=wrap;html=1;fillColor=#f8cecc;strokeColor=#b85450;" vertex="1" parent="1">
          <mxGeometry x="10" y="330" width="120" height="60" as="geometry" />
        </mxCell>
        <mxCell id="Z6UNJ-Nhh9-VpM3zaR7p-9" value="" style="edgeStyle=orthogonalEdgeStyle;rounded=0;orthogonalLoop=1;jettySize=auto;html=1;" edge="1" parent="1" source="Z6UNJ-Nhh9-VpM3zaR7p-6" target="Z6UNJ-Nhh9-VpM3zaR7p-8">
          <mxGeometry relative="1" as="geometry" />
        </mxCell>
        <mxCell id="Z6UNJ-Nhh9-VpM3zaR7p-6" value="Velocidade mÃ©dia" style="shape=document;whiteSpace=wrap;html=1;boundedLbl=1;fillColor=#e1d5e7;strokeColor=#9673a6;" vertex="1" parent="1">
          <mxGeometry x="10" y="460" width="120" height="80" as="geometry" />
        </mxCell>
        <mxCell id="Z6UNJ-Nhh9-VpM3zaR7p-8" value="fim" style="ellipse;whiteSpace=wrap;html=1;fillColor=#dae8fc;strokeColor=#6c8ebf;" vertex="1" parent="1">
          <mxGeometry x="10" y="630" width="120" height="60" as="geometry" />
        </mxCell>
      </root>
    </mxGraphModel>
  </diagram>
</mxfile>
